<svg width="91" height="77" viewBox="0 0 91 77" fill="none" xmlns="http://www.w3.org/2000/svg">
<path fill-rule="evenodd" clip-rule="evenodd" d="M34.4891 89.6378C58.8697 95.7162 83.5603 80.882 89.6381 56.507C95.7158 32.1306 80.8812 7.4386 56.502 1.36157C32.1285 -4.71546 7.43785 10.1202 1.36296 34.498C-4.71763 58.8716 10.1184 83.5607 34.4891 89.6378ZM55.5486 27.5389C61.8525 29.7101 66.4627 32.9647 65.5569 39.019C64.9013 43.4509 62.4441 45.5965 59.1819 46.3487C63.6613 48.6805 65.9408 52.2565 63.7694 58.4558C61.0746 66.1552 54.6727 66.805 46.159 65.194L44.0928 73.4735L39.1001 72.2294L41.1393 64.0608C39.8452 63.7395 38.5227 63.3982 37.1604 63.0285L35.1141 71.2355L30.1271 69.9914L32.1933 61.6963C31.7271 61.5769 31.258 61.4546 30.7855 61.3314C30.0762 61.1464 29.3594 60.9595 28.634 60.7777L22.1367 59.1582L24.6153 53.4438C24.6153 53.4438 28.2941 54.422 28.2443 54.3495C29.6578 54.6993 30.2849 53.7779 30.5324 53.1637L33.7973 40.0754C33.9198 40.1049 34.0398 40.135 34.1556 40.164C34.2131 40.1784 34.2696 40.1926 34.3249 40.2063C34.1258 40.1266 33.9452 40.0754 33.8059 40.0399L36.1351 30.6968C36.1963 29.6361 35.8308 28.2982 33.8087 27.7934C33.8869 27.7408 30.1825 26.892 30.1825 26.892L31.5107 21.56L38.3962 23.279L38.3905 23.3046C39.4257 23.562 40.4922 23.8065 41.5787 24.0539L43.625 15.8555L48.6148 17.0996L46.6098 25.1374C47.9493 25.4431 49.2974 25.7516 50.61 26.0786L52.6008 18.0935L57.5935 19.3376L55.5486 27.5389ZM39.7563 57.2738C43.8302 58.3497 52.7338 60.7011 54.1494 55.0135C55.5999 49.1982 46.9648 47.2608 42.7513 46.3154C42.2804 46.2098 41.8648 46.1165 41.5246 46.0316L38.783 57.0212C39.0623 57.0905 39.3898 57.177 39.7563 57.2738ZM43.5978 41.2155C46.9944 42.1218 54.4032 44.0988 55.6937 38.9294C57.0116 33.642 49.8108 32.0481 46.2941 31.2697C45.8985 31.1821 45.5495 31.1049 45.2645 31.0338L42.7788 41.0011C43.0136 41.0596 43.2892 41.1331 43.5978 41.2155Z" fill="url(#paint0_linear_2948_8341)" fill-opacity="0.02"/>
<defs>
<linearGradient id="paint0_linear_2948_8341" x1="-10.6533" y1="14.9403" x2="93.286" y2="79.9169" gradientUnits="userSpaceOnUse">
<stop stop-color="#E5E5E5"/>
<stop offset="1" stop-color="#E5E5E5" stop-opacity="0.5"/>
</linearGradient>
</defs>
</svg>
