<svg width="91" height="77" viewBox="0 0 91 77" fill="none" xmlns="http://www.w3.org/2000/svg">
    <defs>
        <linearGradient id="paint0_linear_2948_8362" x1="-10.6533" y1="0.940307" x2="93.286" y2="65.9169" gradientUnits="userSpaceOnUse">
            <stop stop-color="#E5E5E5"/>
            <stop offset="1" stop-color="#E5E5E5" stop-opacity="0.5"/>
        </linearGradient>
    </defs>
<path fill-rule="evenodd" clip-rule="evenodd" d="M45.5 77C70.629 77 91 56.629 91 31.5C91 6.37104 70.629 -14 45.5 -14C20.371 -14 0 6.37104 0 31.5C0 56.629 20.371 77 45.5 77ZM40.6482 24.8309L54.1511 28.7191C61.3901 30.7986 65.9036 38.5752 63.2155 46.1549C61.2901 51.5813 55.8264 54.9896 50.0002 55.1004V61.0312C50.0002 62.1141 49.1 63 47.9997 63H43.9989C42.8987 63 41.9985 62.1141 41.9985 61.0312V55.125C38.0726 55.1127 34.2468 53.7961 31.1836 51.4336C30.1959 50.683 30.0709 49.268 30.9586 48.4189L35.3095 44.2354C35.9597 43.6078 36.9849 43.4848 37.7475 43.9893C38.9978 44.826 40.4981 45.2812 42.0235 45.2812H50.3127C52.3507 45.2812 54.001 43.657 54.001 41.6514C54.001 40.0518 52.9133 38.6244 51.3505 38.1691L38.5352 34.4777C32.984 32.8781 28.5831 28.2639 28.058 22.5914C27.3203 14.6057 33.7217 7.875 41.6859 7.875H41.9985V1.96875C41.9985 0.885938 42.8987 0 43.9989 0H47.9997C49.1 0 50.0002 0.885938 50.0002 1.96875V7.875C53.926 7.8873 57.7518 9.20391 60.815 11.5664C61.8027 12.317 61.9277 13.732 61.04 14.5811L56.6891 18.7646C56.039 19.3922 55.0137 19.5152 54.2511 19.0107C53.0008 18.174 51.5005 17.7188 49.9752 17.7188H41.6859C39.6479 17.7188 37.9976 19.343 37.9976 21.3486C37.9976 22.9482 39.0853 24.3879 40.6482 24.8309Z" fill="url(#paint0_linear_2948_8362)" fill-opacity="0.02"/>
</svg>
