<svg width="91" height="52" viewBox="0 0 91 52" fill="none" xmlns="http://www.w3.org/2000/svg">
<path fill-rule="evenodd" clip-rule="evenodd" d="M45.5 91C70.629 91 91 70.629 91 45.5C91 20.371 70.629 0 45.5 0C20.371 0 0 20.371 0 45.5C0 70.629 20.371 91 45.5 91ZM58.2104 63.0558C58.9935 62.878 59.7684 63.3798 59.9246 64.1642L60.9725 69.4275C61.1198 70.1668 60.6611 70.89 59.9282 71.0787C58.438 71.4624 55.7925 72 52.6669 72C40.2633 72 30.9789 64.2738 28.0049 53.5872H24.4261C23.6385 53.5872 23 52.9516 23 52.1676V48.8125C23 48.0285 23.6385 47.3929 24.4261 47.3929H26.9679C26.849 45.8599 26.8695 44.0049 26.9894 42.3951H24.4261C23.6385 42.3951 23 41.7595 23 40.9755V37.4554C23 36.6714 23.6385 36.0357 24.4261 36.0357H28.3568C31.7978 26.128 41.1174 19 52.6669 19C55.1714 19 57.4897 19.3445 58.9281 19.616C59.7435 19.7699 60.253 20.5833 60.0364 21.3807L58.6114 26.6296C58.4147 27.3542 57.6861 27.7998 56.9474 27.6498C55.8437 27.4256 54.1707 27.1594 52.4491 27.1594C45.9213 27.1594 40.9232 30.7131 38.4712 36.0357H54.9043C55.8148 36.0357 56.4921 36.8735 56.2975 37.7589L55.5236 41.279C55.454 41.5953 55.2779 41.8785 55.0245 42.0815C54.7711 42.2845 54.4557 42.3951 54.1304 42.3951H36.7091C36.5248 44.0464 36.5491 45.6978 36.6929 47.3929H52.6457C53.5595 47.3929 54.2375 48.2362 54.0371 49.1238L53.2797 52.4788C53.2087 52.7934 53.0322 53.0746 52.7794 53.276C52.5265 53.4775 52.2122 53.5872 51.8883 53.5872H38.3774C40.6986 59.5804 46.0662 63.6962 52.812 63.6962C54.9516 63.6962 56.9398 63.3443 58.2104 63.0558Z" fill="url(#paint0_linear_2948_8365)" fill-opacity="0.02"/>
<defs>
<linearGradient id="paint0_linear_2948_8365" x1="-10.6533" y1="14.9403" x2="93.286" y2="79.9169" gradientUnits="userSpaceOnUse">
<stop stop-color="#E5E5E5"/>
<stop offset="1" stop-color="#E5E5E5" stop-opacity="0.5"/>
</linearGradient>
</defs>
</svg>
