<svg width="77" height="61" viewBox="0 0 77 61" fill="none" xmlns="http://www.w3.org/2000/svg">
<path fill-rule="evenodd" clip-rule="evenodd" d="M45 61C69.9377 61 90 40.9377 90 16C90 -8.93765 69.9377 -29 45 -29C20.0623 -29 0 -8.93765 0 16C0 40.9377 20.0623 61 45 61ZM57.3758 23.123C57.3758 16.5607 53.4383 14.3107 45.5633 13.3733C39.9383 12.6232 38.8133 11.1233 38.8133 8.49805C38.8133 5.87275 40.6885 4.1857 44.4383 4.1857C47.8133 4.1857 49.6885 5.3107 50.6258 8.1232C50.8135 8.6857 51.376 9.06055 51.9385 9.06055H54.9382C55.6883 9.06055 56.2508 8.49805 56.2508 7.74835V7.5607C55.5007 3.43555 52.1257 0.248198 47.8133 -0.126654V-4.62665C47.8133 -5.3768 47.2508 -5.9393 46.3135 -6.12695H43.501C42.7508 -6.12695 42.1883 -5.56445 42.0007 -4.62665V-0.314302C36.3757 0.435848 32.8135 4.1857 32.8135 8.87335C32.8135 15.0608 36.5633 17.4981 44.4383 18.4359C49.6885 19.3732 51.376 20.4982 51.376 23.4984C51.376 26.4985 48.7507 28.5609 45.1885 28.5609C40.3132 28.5609 38.6257 26.498 38.0632 23.6855C37.876 22.9358 37.3135 22.5605 36.751 22.5605H33.5632C32.8135 22.5605 32.251 23.1231 32.251 23.8732V24.0609C33.0007 28.7481 36.0008 32.1231 42.1883 33.0609V37.5609C42.1883 38.3105 42.7508 38.873 43.6882 39.0607H46.5007C47.2508 39.0607 47.8133 38.4982 48.001 37.5609V33.0609C53.626 32.1231 57.3758 28.1855 57.3758 23.123ZM18.7509 6.81025C13.3131 21.248 20.8132 37.5605 35.4382 42.8102C36.0007 43.1855 36.5632 43.9352 36.5632 44.4977V47.123C36.5632 47.4979 36.5632 47.6855 36.3756 47.8727C36.1884 48.6229 35.4382 48.9977 34.6881 48.6229C24.1882 45.2479 16.1256 37.1852 12.7506 26.6854C7.12558 8.87305 16.8757 -10.0648 34.6881 -15.6898C34.8757 -15.877 35.2506 -15.877 35.4382 -15.877C36.1884 -15.6898 36.5632 -15.1273 36.5632 -14.3771V-11.7523C36.5632 -10.8145 36.1884 -10.252 35.4382 -9.8771C27.7509 -7.0646 21.5634 -1.06475 18.7509 6.81025ZM53.6259 -14.9396C53.8131 -15.6898 54.5632 -16.0646 55.3134 -15.6898C65.6256 -12.3148 73.8759 -4.2521 77.2509 6.43539C82.8759 24.2477 73.1257 43.1855 55.3134 48.8105C55.1257 48.9977 54.7509 48.9977 54.5632 48.9977C53.8131 48.8105 53.4382 48.248 53.4382 47.4979V44.873C53.4382 43.9352 53.8131 43.3727 54.5632 42.9979C62.2506 40.1854 68.4381 34.1855 71.2506 26.3105C76.6884 11.8727 69.1882 -4.43975 54.5632 -9.68945C54.0007 -10.0648 53.4382 -10.8145 53.4382 -11.5646V-14.1895C53.4382 -14.5648 53.4382 -14.752 53.6259 -14.9396Z" fill="url(#paint0_linear_2948_8344)" fill-opacity="0.02"/>
<defs>
<linearGradient id="paint0_linear_2948_8344" x1="-10.5363" y1="-14.2239" x2="92.2609" y2="50.0387" gradientUnits="userSpaceOnUse">
<stop stop-color="#E5E5E5"/>
<stop offset="1" stop-color="#E5E5E5" stop-opacity="0.5"/>
</linearGradient>
</defs>
</svg>
