<svg width="102" height="86" viewBox="0 0 102 86" fill="none" xmlns="http://www.w3.org/2000/svg">
    <defs>
        <linearGradient id="paint0_linear_2948_8338" x1="-11.8471" y1="12.4478" x2="94.1373" y2="88.6386" gradientUnits="userSpaceOnUse">
            <stop stop-color="#E5E5E5"/>
            <stop offset="1" stop-color="#E5E5E5" stop-opacity="0.5"/>
        </linearGradient>
    </defs>
<path fill-rule="evenodd" clip-rule="evenodd" d="M0.0758617 37.1764L18.5282 -1.5678C18.5886 -1.69829 18.6855 -1.80852 18.8071 -1.8852C18.9288 -1.96188 19.0701 -2.00173 19.2139 -1.99994H81.9888C82.132 -2.00032 82.2722 -1.95949 82.3927 -1.88232C82.5133 -1.80516 82.609 -1.69493 82.6686 -1.56481L101.121 37.1794C101.191 37.3235 101.213 37.4863 101.184 37.644C101.155 37.8016 101.077 37.9459 100.96 38.0556L51.1246 85.7885C50.9831 85.9242 50.7945 86 50.5984 86C50.4023 86 50.2137 85.9242 50.0722 85.7885L0.236861 38.0527C0.119998 37.9429 0.0413304 37.7986 0.0123623 37.641C-0.0166059 37.4833 0.00564524 37.3205 0.0758617 37.1764ZM50.6722 41.2906C54.7955 41.2906 56.644 41.1804 57.0018 41.1535L56.9899 41.1506C69.6403 40.5903 79.0766 38.3848 79.0766 35.7502C79.0766 33.1156 69.6373 30.9102 56.9899 30.3469V38.96C56.6351 38.9928 54.6643 39.1567 50.7288 39.1567C47.4492 39.1567 45.0759 39.0167 44.2471 38.957V30.3409C31.5729 30.9072 22.1126 33.1096 22.1126 35.7502C22.1126 38.3908 31.5729 40.5962 44.2471 41.1535C45.064 41.1923 47.3925 41.2906 50.6722 41.2906ZM57.0018 29.4529V29.4558L56.9988 29.4528C56.9998 29.4528 57.0008 29.4529 57.0018 29.4529ZM57.0018 21.7457V29.4529C71.3203 30.1148 82.079 32.9519 82.079 36.3522C82.079 39.7528 71.3099 42.5901 56.9988 43.2487V67.9646H44.2441V43.2577C29.9002 42.596 19.1133 39.7588 19.1133 36.3552C19.1133 32.9517 29.9002 30.1114 44.2441 29.4528V21.7457H26.5968V9.98828H74.6521V21.7457H57.0018Z" fill="url(#paint0_linear_2948_8338)" fill-opacity="0.02"/>
</svg>
