<svg width="32" height="32" viewBox="0 0 32 32" fill="none" xmlns="http://www.w3.org/2000/svg">
<path d="M0.964413 12.2522L0.964444 12.2521C3.03389 3.94764 11.4449 -1.10623 19.7479 0.963941L19.7479 0.963947C28.0528 3.03413 33.1064 11.4456 31.0359 19.7496C28.9655 28.053 20.5545 33.1065 12.249 31.0358C3.947 28.9657 -1.10696 20.5551 0.964413 12.2522Z" stroke="#BABABC"/>
<path d="M23.0528 13.7196C23.3713 11.5907 21.7502 10.4462 19.5334 9.68268L20.2525 6.79871L18.4968 6.36121L17.7967 9.16918C17.3352 9.05418 16.8611 8.94568 16.3901 8.83819L17.0952 6.01171L15.3405 5.57422L14.6209 8.45719C14.2389 8.37019 13.8638 8.28419 13.4998 8.19369L13.5018 8.18469L11.0805 7.5802L10.6135 9.45518C10.6135 9.45518 11.9161 9.75368 11.8886 9.77218C12.5997 9.94967 12.7282 10.4202 12.7067 10.7932L11.8876 14.0786C11.9366 14.0911 12.0001 14.1091 12.0701 14.1371C12.0116 14.1226 11.9491 14.1066 11.8846 14.0911L10.7365 18.6936C10.6495 18.9096 10.429 19.2336 9.93191 19.1106C9.94941 19.1361 8.65577 18.7921 8.65577 18.7921L7.78418 20.8016L10.0689 21.3711C10.494 21.4776 10.9105 21.5891 11.3206 21.6941L10.594 24.611L12.3477 25.0485L13.0672 22.1625C13.5463 22.2925 14.0113 22.4125 14.4664 22.5255L13.7493 25.398L15.505 25.8355L16.2316 22.924C19.2254 23.4905 21.4766 23.262 22.4242 20.5546C23.1878 18.3746 22.3862 17.1171 20.8111 16.2971C21.9582 16.0326 22.8223 15.2781 23.0528 13.7196ZM19.0414 19.3441C18.4988 21.5241 14.8279 20.3456 13.6378 20.0501L14.6019 16.1856C15.792 16.4826 19.6084 17.0706 19.0414 19.3441ZM19.5844 13.6881C19.0894 15.6711 16.0341 14.6636 15.0429 14.4166L15.917 10.9117C16.9081 11.1587 20.1 11.6197 19.5844 13.6881Z" fill="#BABABC"/>
</svg>
