<svg width="25" height="24" viewBox="0 0 25 24" fill="none" xmlns="http://www.w3.org/2000/svg">
<g clip-path="url(#clip0_2894_8084)">
<path d="M1.83301 5.99609V6.49609H2.33301H22.333H22.833V5.99609V4.49609C22.833 3.86171 22.3621 3.24609 21.6663 3.24609H2.99967C2.30146 3.24609 1.83301 3.86257 1.83301 4.49609V5.99609ZM22.833 10.4961V9.99609H22.333H2.33301H1.83301V10.4961V19.4961C1.83301 20.1269 2.3007 20.7461 2.99967 20.7461H21.6663C22.3629 20.7461 22.833 20.1277 22.833 19.4961V10.4961ZM7.33301 16.2461C7.5573 16.2461 7.83301 16.4668 7.83301 16.8711C7.83301 17.2754 7.5573 17.4961 7.33301 17.4961H5.33301C5.10872 17.4961 4.83301 17.2754 4.83301 16.8711C4.83301 16.4668 5.10872 16.2461 5.33301 16.2461H7.33301ZM15.333 16.2461C15.5573 16.2461 15.833 16.4668 15.833 16.8711C15.833 17.2754 15.5573 17.4961 15.333 17.4961H10.6663C10.4421 17.4961 10.1663 17.2754 10.1663 16.8711C10.1663 16.4668 10.4421 16.2461 10.6663 16.2461H15.333ZM21.6663 1.99609C22.8075 1.99609 23.833 3.05848 23.833 4.49609V19.4961C23.833 20.9316 22.8073 21.9961 21.6663 21.9961H2.99967C1.85687 21.9961 0.833008 20.9319 0.833008 19.4961V4.49609C0.833008 3.05821 1.85664 1.99609 2.99967 1.99609H21.6663Z" fill="#BABABC" stroke="#BABABC"/>
</g>
<defs>
<clipPath id="clip0_2894_8084">
<rect width="24" height="24" fill="white" transform="translate(0.333008)"/>
</clipPath>
</defs>
</svg>
