<svg width="32" height="32" viewBox="0 0 32 32" fill="none" xmlns="http://www.w3.org/2000/svg">
<defs>
<linearGradient id="paint0_linear_2615_33997" x1="16" y1="0" x2="16" y2="32" gradientUnits="userSpaceOnUse">
<stop offset="4.52862e-07" stop-color="#3A3A51"/>
<stop offset="1" stop-color="#191927"/>
</linearGradient>
<clipPath id="clip0_2615_33997">
<rect width="32" height="32" rx="4" fill="white"/>
</clipPath>
</defs>
<g id="change_now_logo 1">
<g clip-path="url(#clip0_2615_33997)">
<path id="Vector" d="M32 0H0V32H32V0Z" fill="url(#paint0_linear_2615_33997)"/>
<g id="Group">
<path id="Vector_2" d="M5.61024 23.136C5.61024 21.376 5.61024 19.6267 5.61024 17.8454C5.64224 17.8774 5.66357 17.9094 5.67424 17.9307C6.04757 18.496 6.43157 19.0507 6.8049 19.616C7.58357 20.768 8.37291 21.9307 9.15157 23.072C9.18357 23.136 9.2369 23.1574 9.3009 23.1574C9.61024 23.1574 9.91957 23.1574 10.2396 23.1574C10.2716 23.1574 10.2929 23.1574 10.3249 23.1574C10.3249 21.0027 10.3249 18.8694 10.3249 16.7254C10.0369 16.7254 9.73824 16.7254 9.45024 16.7254C9.45024 18.4854 9.45024 20.2347 9.45024 21.9947C9.41824 21.9734 9.3969 21.9627 9.38624 21.9414C8.23424 20.2134 7.0929 18.496 5.9409 16.7787C5.9089 16.7254 5.8769 16.7147 5.82357 16.7147C5.50357 16.7147 5.16224 16.7147 4.84224 16.7147C4.81024 16.7147 4.7889 16.7147 4.7569 16.7147C4.7569 18.8694 4.7569 21.0027 4.7569 23.136C5.02357 23.136 5.32224 23.136 5.61024 23.136ZM7.93557 8.69336C7.93557 10.4854 7.93557 12.2667 7.93557 14.0587C8.14891 14.0587 8.35157 14.0587 8.58624 14.0587C8.58624 14.0267 8.58624 13.9947 8.58624 13.9627C8.58624 13.4294 8.58624 12.8747 8.58624 12.3414C8.58624 12.224 8.60757 12.096 8.61824 11.9894C8.70357 11.52 9.03424 11.232 9.49291 11.232C9.86624 11.232 10.1436 11.424 10.2396 11.7867C10.2716 11.904 10.2716 12.032 10.2929 12.16C10.2929 12.7787 10.2929 13.3867 10.2929 14.0054C10.2929 14.0374 10.2929 14.0694 10.2929 14.1014C10.5169 14.1014 10.7089 14.1014 10.9436 14.1014C10.9436 14.0694 10.9436 14.048 10.9436 14.016C10.9436 13.3334 10.9436 12.64 10.9436 11.9574C10.9436 11.84 10.9436 11.7334 10.9116 11.616C10.8476 11.232 10.6556 10.9227 10.2822 10.7414C10.0262 10.624 9.72757 10.592 9.43957 10.6454C9.08757 10.7094 8.7889 10.8694 8.5969 11.2H8.57557C8.57557 10.3787 8.57557 9.53603 8.57557 8.71469C8.36224 8.69336 8.14891 8.69336 7.93557 8.69336ZM18.8049 14.0587C18.8049 14.0267 18.8049 14.0054 18.8049 13.9947C18.8049 13.3014 18.8049 12.608 18.8049 11.904C18.8049 11.808 18.8049 11.712 18.7836 11.616C18.7302 11.296 18.5916 11.0187 18.3142 10.8267C17.8982 10.5387 17.2156 10.5494 16.7782 10.8587C16.6502 10.9547 16.5542 11.072 16.4582 11.2C16.4582 11.04 16.4582 10.88 16.4582 10.6987C16.3409 10.6987 16.2342 10.6987 16.1382 10.6987C16.0422 10.6987 15.9249 10.6987 15.8289 10.6987C15.8289 11.8294 15.8289 12.9494 15.8289 14.0587C16.0422 14.0587 16.2449 14.0587 16.4582 14.0587C16.4582 14.0267 16.4582 13.9947 16.4582 13.9627C16.4582 13.4294 16.4582 12.9067 16.4582 12.3734C16.4582 12.256 16.4582 12.16 16.4796 12.0534C16.5329 11.5734 16.8209 11.264 17.2902 11.2107C17.6636 11.1574 17.9836 11.3067 18.1009 11.6587C18.1542 11.808 18.1649 11.9467 18.1649 12.1067C18.1649 12.7254 18.1649 13.3227 18.1649 13.9307C18.1649 13.9627 18.1649 13.9947 18.1649 14.0267C18.3782 14.0587 18.5916 14.0587 18.8049 14.0587ZM6.78357 13.1734C6.76224 13.1947 6.75157 13.2267 6.73024 13.2374C6.2929 13.7067 5.43957 13.6214 5.09824 13.0774C4.87424 12.7254 4.8529 12.352 4.97024 11.9574C5.21557 11.1147 6.1009 11.0507 6.57024 11.392C6.65557 11.456 6.71957 11.5094 6.79424 11.5734C6.95424 11.424 7.11424 11.2854 7.26357 11.136C6.7409 10.5067 5.48224 10.3787 4.7569 11.04C4.04224 11.6907 4.03157 13.0134 4.70357 13.664C5.4289 14.3574 6.7409 14.2507 7.24224 13.6107C7.11424 13.4827 6.9649 13.3334 6.78357 13.1734Z" fill="#FAFDFC"/>
<path id="Vector_3" d="M5.61002 23.1351C5.30068 23.1351 5.02335 23.1351 4.73535 23.1351C4.73535 21.0018 4.73535 18.8471 4.73535 16.7138C4.76735 16.7138 4.78868 16.7138 4.82068 16.7138C5.14068 16.7138 5.48202 16.7138 5.80202 16.7138C5.86602 16.7138 5.89802 16.7351 5.91935 16.7778C7.08202 18.4951 8.23402 20.2018 9.37535 21.9191C9.39669 21.9405 9.40735 21.9511 9.43935 21.9725C9.43935 20.2231 9.43935 18.4631 9.43935 16.7031C9.72735 16.7031 10.026 16.7031 10.314 16.7031C10.314 18.8365 10.314 20.9911 10.314 23.1351C10.282 23.1351 10.2607 23.1351 10.2287 23.1351C9.91935 23.1351 9.61002 23.1351 9.29002 23.1351C9.22602 23.1351 9.17268 23.1138 9.14068 23.0498C8.36202 21.8978 7.58335 20.7351 6.79402 19.5938C6.42068 19.0285 6.03668 18.4738 5.66335 17.9085C5.64202 17.8871 5.63135 17.8551 5.59935 17.8231C5.61002 19.6258 5.61002 21.3645 5.61002 23.1351Z" fill="#01C16B"/>
<path id="Vector_4" d="M7.93547 8.69336C8.1488 8.69336 8.35147 8.69336 8.5648 8.69336C8.5648 9.51469 8.5648 10.3574 8.5648 11.1787C8.58614 11.1787 8.58614 11.1787 8.58614 11.1787C8.76747 10.8587 9.05547 10.6774 9.4288 10.624C9.7168 10.5707 9.99414 10.592 10.2715 10.72C10.6448 10.88 10.8368 11.1894 10.9008 11.5947C10.9221 11.712 10.9328 11.8187 10.9328 11.936C10.9328 12.6187 10.9328 13.312 10.9328 13.9947C10.9328 14.0267 10.9328 14.048 10.9328 14.08C10.7195 14.08 10.5168 14.08 10.2821 14.08C10.2821 14.048 10.2821 14.016 10.2821 13.984C10.2821 13.3654 10.2821 12.7574 10.2821 12.1387C10.2821 12.0107 10.2608 11.8827 10.2288 11.7654C10.1328 11.4134 9.8768 11.2107 9.48214 11.2107C9.0128 11.2107 8.6928 11.4987 8.60747 11.968C8.58614 12.0854 8.57547 12.2134 8.57547 12.32C8.57547 12.8534 8.57547 13.408 8.57547 13.9414C8.57547 13.9734 8.57547 14.0054 8.57547 14.0374C8.36214 14.0374 8.15947 14.0374 7.9248 14.0374C7.93547 12.2667 7.93547 10.4854 7.93547 8.69336Z" fill="#FAFDFC"/>
<path id="Vector_5" d="M18.8052 14.0587C18.5918 14.0587 18.3892 14.0587 18.1758 14.0587C18.1758 14.0267 18.1758 13.9947 18.1758 13.9627C18.1758 13.344 18.1758 12.7467 18.1758 12.1387C18.1758 11.9893 18.1545 11.8293 18.1118 11.6907C17.9838 11.3387 17.6745 11.1893 17.3012 11.2427C16.8318 11.296 16.5545 11.5947 16.4905 12.0853C16.4692 12.2027 16.4692 12.2987 16.4692 12.4053C16.4692 12.9387 16.4692 13.4613 16.4692 13.9947C16.4692 14.0267 16.4692 14.0587 16.4692 14.0907C16.2558 14.0907 16.0532 14.0907 15.8398 14.0907C15.8398 12.9707 15.8398 11.8613 15.8398 10.7307C15.9358 10.7307 16.0532 10.7307 16.1492 10.7307C16.2452 10.7307 16.3625 10.7307 16.4692 10.7307C16.4692 10.8907 16.4692 11.072 16.4692 11.232C16.5652 11.104 16.6612 10.976 16.7892 10.8907C17.2265 10.5813 17.9092 10.5707 18.3252 10.8587C18.6025 11.0507 18.7412 11.328 18.7945 11.648C18.8158 11.744 18.8158 11.84 18.8158 11.936C18.8158 12.6293 18.8158 13.3227 18.8158 14.0267C18.8052 14.016 18.8052 14.0267 18.8052 14.0587Z" fill="#FAFDFC"/>
<path id="Vector_6" d="M6.78384 13.1741C6.94384 13.3341 7.10384 13.4941 7.25317 13.6434C6.75184 14.2621 5.43984 14.3687 4.7145 13.6967C4.03184 13.0461 4.05317 11.7234 4.76784 11.0727C5.49317 10.4114 6.75184 10.5501 7.2745 11.1687C7.1145 11.3181 6.9545 11.4567 6.80517 11.6061C6.71984 11.5421 6.65584 11.4781 6.58117 11.4247C6.11184 11.0834 5.2265 11.1474 4.98117 11.9901C4.86384 12.3741 4.88517 12.7474 5.10917 13.1101C5.4505 13.6647 6.30384 13.7394 6.74117 13.2701C6.75184 13.2167 6.77317 13.1847 6.78384 13.1741Z" fill="#FAFDFC"/>
<path id="Vector_7" d="M27.776 16.7254C27.712 16.9174 27.6587 17.1094 27.5947 17.312C27.0294 19.232 26.4747 21.1627 25.9094 23.0827C25.888 23.136 25.8774 23.1467 25.824 23.1467C25.568 23.1467 25.3014 23.1467 25.0454 23.1467C24.9814 23.1467 24.96 23.1254 24.9494 23.0614C24.672 22.1227 24.384 21.1734 24.1067 20.2347C23.8827 19.4774 23.6587 18.7094 23.424 17.952C23.424 17.9307 23.4027 17.92 23.392 17.888C23.36 18.016 23.3067 18.1334 23.2747 18.24C22.8054 19.8614 22.3254 21.4614 21.856 23.072C21.8347 23.136 21.8027 23.1574 21.7387 23.1574C21.4827 23.1574 21.216 23.1574 20.9814 23.1574C20.9174 23.1574 20.896 23.136 20.8854 23.0934C20.48 21.7174 20.0747 20.3414 19.6907 18.9654C19.4774 18.2507 19.2747 17.5467 19.072 16.832C19.0507 16.8 19.0507 16.768 19.04 16.736C19.0614 16.736 19.072 16.736 19.0934 16.736C19.3707 16.736 19.6267 16.736 19.904 16.736C19.9574 16.736 19.968 16.768 19.9894 16.8C20.1814 17.5254 20.3947 18.2507 20.5867 18.9654C20.8427 19.904 21.1094 20.8534 21.3654 21.792C21.3654 21.8134 21.3867 21.8454 21.3974 21.8774C21.92 20.1494 22.4214 18.432 22.9227 16.7147C23.1147 16.7147 23.3067 16.7147 23.5094 16.7147C23.6267 16.7147 23.7547 16.7147 23.8614 16.7147C23.9147 16.7147 23.9254 16.736 23.9467 16.7787C24.1067 17.3334 24.2667 17.8774 24.4267 18.432C24.7467 19.552 25.088 20.6827 25.408 21.792C25.408 21.8134 25.4294 21.824 25.44 21.856C25.504 21.6107 25.568 21.376 25.632 21.1307C26.0374 19.68 26.4427 18.24 26.8267 16.7787C26.848 16.7254 26.8587 16.6934 26.9227 16.6934C27.2107 16.7147 27.4987 16.7147 27.776 16.7254C27.776 16.7147 27.776 16.7147 27.776 16.7254Z" fill="#01C16B"/>
<path id="Vector_8" d="M22.624 10.698C22.624 10.8473 22.624 11.0073 22.624 11.146C22.3146 10.794 21.9413 10.6127 21.4933 10.6127C20.864 10.5913 20.3626 10.826 20.0213 11.3593C19.776 11.7327 19.712 12.138 19.744 12.5753C19.776 12.9487 19.904 13.2687 20.1493 13.546C20.5546 13.9833 21.056 14.1647 21.632 14.1007C21.9733 14.0473 22.2613 13.9407 22.4853 13.6847C22.5386 13.6313 22.5706 13.5887 22.6133 13.5247C22.6346 13.546 22.6346 13.546 22.6346 13.5567C22.6346 13.77 22.6346 13.9727 22.6133 14.186C22.592 14.4633 22.496 14.7087 22.2933 14.8793C22.1013 15.0393 21.8773 15.1247 21.6106 15.1567C21.1946 15.21 20.8213 15.1247 20.48 14.8687C20.384 14.7833 20.2986 14.7087 20.2026 14.6233C20.0533 14.8047 19.9146 14.9753 19.7653 15.1567C19.9466 15.338 20.1493 15.4767 20.384 15.5727C20.7573 15.7327 21.1413 15.786 21.536 15.7647C21.952 15.7433 22.3253 15.6367 22.656 15.3807C23.0933 15.0287 23.2746 14.5593 23.2746 14.0047C23.2746 12.938 23.2746 11.85 23.2746 10.7833C23.2746 10.7513 23.2746 10.73 23.2746 10.698C23.04 10.698 22.8266 10.698 22.624 10.698ZM22.1013 13.3647C21.7173 13.5887 20.9493 13.5887 20.5973 13.0553C20.3093 12.618 20.352 11.8713 20.7253 11.5193C21.0666 11.1993 21.4506 11.1353 21.888 11.2633C22.3253 11.4127 22.5493 11.7433 22.6026 12.1807C22.624 12.2447 22.624 12.3087 22.624 12.362C22.624 12.7993 22.4746 13.1407 22.1013 13.3647Z" fill="#FAFDFC"/>
<path id="Vector_9" d="M27.5298 12.6087C27.5298 12.4914 27.5511 12.3634 27.5084 12.2354C27.4871 11.862 27.4124 11.51 27.1884 11.2007C26.8791 10.7847 26.4418 10.582 25.9298 10.582C25.3111 10.582 24.8098 10.806 24.4578 11.3287C24.1698 11.766 24.1058 12.246 24.2018 12.7687C24.2658 13.11 24.4151 13.4194 24.6498 13.654C24.9271 13.9314 25.2684 14.0914 25.6524 14.1234C26.2498 14.1874 26.7831 14.0594 27.2204 13.622C27.2844 13.5687 27.3378 13.5047 27.3804 13.4407C27.2204 13.3127 27.0604 13.1954 26.9004 13.0674C26.8791 13.0994 26.8471 13.1207 26.8364 13.1527C26.5804 13.43 26.2711 13.6007 25.8871 13.5687C25.4498 13.5367 25.1084 13.3447 24.9164 12.9394C24.8631 12.822 24.8524 12.7154 24.8524 12.598C25.3004 12.598 25.7378 12.598 26.1964 12.598C26.6551 12.598 27.0818 12.6087 27.5298 12.6087ZM24.9911 11.606C25.2791 11.158 25.8658 10.9874 26.3458 11.222C26.6338 11.3714 26.8471 11.6914 26.8258 12.0967C26.1644 12.0967 25.5031 12.0967 24.8418 12.0967C24.8524 11.9047 24.9164 11.7447 24.9911 11.606Z" fill="#FAFDFC"/>
<g id="Group_2">
<g id="Group_3">
<path id="Vector_10" d="M12.4373 11.4785C12.416 11.4998 12.416 11.4998 12.416 11.4998C12.4373 11.4892 12.4373 11.4892 12.4373 11.4785Z" fill="#FAFDFC"/>
<path id="Vector_11" d="M14.7946 13.2063C14.7732 12.6836 14.7946 12.1503 14.7732 11.6383C14.7519 11.2543 14.5599 10.9449 14.2079 10.7849C13.5466 10.4756 12.9172 10.5609 12.2986 10.9023C12.2026 10.9556 12.1172 11.0303 12.0106 11.1156C12.1706 11.2436 12.2986 11.3716 12.4266 11.4889C12.4799 11.4676 12.5226 11.4356 12.5866 11.4036C12.8746 11.1796 13.2159 11.0943 13.5892 11.1583C14.0052 11.2223 14.2399 11.5956 14.1759 11.9796C14.1439 11.9796 14.1119 11.9796 14.0799 11.9796C13.8239 11.9796 13.5786 11.9796 13.3226 12.0009C12.9812 12.0329 12.6612 12.0969 12.3732 12.2783C12.0959 12.4383 11.9252 12.6836 11.8932 13.0249C11.8399 13.4943 12.0746 13.8996 12.4906 14.0596C12.7146 14.1556 12.9599 14.1769 13.2052 14.1556C13.6212 14.1236 13.9626 13.9636 14.2079 13.6009C14.2292 13.5796 14.2292 13.5689 14.2292 13.5476L14.2506 13.5689C14.2506 13.7289 14.2719 13.8889 14.2719 14.0489C14.4639 14.0489 14.6559 14.0489 14.8372 14.0489C14.8052 13.7503 14.7946 13.4836 14.7946 13.2063ZM14.1652 12.6516C14.1652 12.6729 14.1652 12.6836 14.1652 12.7049C14.1652 12.7369 14.1652 12.7689 14.1439 12.8009C14.1439 12.8223 14.1439 12.8223 14.1439 12.8329C14.1439 12.8543 14.1439 12.8649 14.1226 12.8969C14.0906 13.0889 14.0052 13.2703 13.8452 13.3983C13.6532 13.5796 13.4292 13.6116 13.1839 13.6116C13.1519 13.6116 13.0986 13.6116 13.0666 13.6116C12.9172 13.6116 12.7786 13.5796 12.6612 13.4943C12.3839 13.3023 12.4052 12.8969 12.6612 12.6836C12.8106 12.5663 12.9812 12.5236 13.1412 12.4916C13.3226 12.4596 13.6639 12.4383 13.9199 12.4383C14.0052 12.4383 14.0799 12.4383 14.1439 12.4383C14.1439 12.4916 14.1439 12.5343 14.1439 12.5663C14.1652 12.6089 14.1652 12.6409 14.1652 12.6516Z" fill="#FAFDFC"/>
</g>
</g>
<path id="Vector_12" d="M18.1859 18.6246C17.8765 17.782 17.2792 17.174 16.4365 16.8113C15.8072 16.5553 15.1565 16.4913 14.4952 16.5873C13.8445 16.6833 13.2792 16.9393 12.7992 17.3766C12.3619 17.782 12.0739 18.2513 11.8925 18.7953C11.7325 19.318 11.6792 19.8513 11.7432 20.3846C11.8605 21.302 12.2659 22.07 12.9912 22.6353C13.6099 23.1046 14.3032 23.318 15.0819 23.318C15.2312 23.2966 15.3592 23.2966 15.4659 23.286C16.5539 23.1686 17.4072 22.6566 17.9512 21.6966C18.5272 20.7046 18.5805 19.67 18.1859 18.6246ZM17.5139 20.1606C17.5139 20.1926 17.5139 20.214 17.4925 20.246C17.4712 20.438 17.4392 20.63 17.3752 20.8113C17.2579 21.1633 17.0979 21.4726 16.8205 21.7606C16.3512 22.262 15.7539 22.5073 15.0605 22.5073C14.3779 22.486 13.8125 22.262 13.3432 21.782C13.0339 21.462 12.8419 21.0673 12.7459 20.6513C12.6925 20.406 12.6605 20.182 12.6285 19.9366V19.9153C12.6285 19.9366 12.6285 19.9366 12.6499 19.9366C12.6499 19.35 12.7992 18.806 13.1512 18.3366C13.5352 17.8033 14.0685 17.4833 14.7405 17.398C15.1245 17.3446 15.5192 17.3766 15.9032 17.5153C16.3512 17.6753 16.7245 17.9633 17.0232 18.358C17.3645 18.8273 17.5032 19.3606 17.5032 19.926C17.5245 19.99 17.5139 20.0753 17.5139 20.1606Z" fill="#01C16B"/>
</g>
</g>
</g>
</svg>
