<svg width="32" height="32" viewBox="0 0 32 32" fill="none" xmlns="http://www.w3.org/2000/svg">
<path d="M0.964413 12.2522L0.964444 12.2521C3.03389 3.94764 11.4449 -1.10623 19.7479 0.963941L19.7479 0.963947C28.0528 3.03413 33.1064 11.4456 31.0359 19.7496C28.9655 28.053 20.5545 33.1065 12.249 31.0358C3.947 28.9657 -1.10696 20.5551 0.964413 12.2522Z" stroke="#BABABC"/>
<path d="M16 6V26" stroke="#BABABC" stroke-width="2" stroke-linecap="round" stroke-linejoin="round"/>
<path d="M20.1667 10H13.9167C13.1431 10 12.4013 10.3161 11.8543 10.8787C11.3073 11.4413 11 12.2044 11 13C11 13.7956 11.3073 14.5587 11.8543 15.1213C12.4013 15.6839 13.1431 16 13.9167 16H18.0833C18.8569 16 19.5987 16.3161 20.1457 16.8787C20.6927 17.4413 21 18.2044 21 19C21 19.7956 20.6927 20.5587 20.1457 21.1213C19.5987 21.6839 18.8569 22 18.0833 22H11" stroke="#BABABC" stroke-width="2" stroke-linecap="round" stroke-linejoin="round"/>
</svg>
