<svg width="14" height="14" viewBox="0 0 14 14" fill="none" xmlns="http://www.w3.org/2000/svg">
<path d="M11.0833 6.41602H2.91667C2.27233 6.41602 1.75 6.93835 1.75 7.58268V11.666C1.75 12.3103 2.27233 12.8327 2.91667 12.8327H11.0833C11.7277 12.8327 12.25 12.3103 12.25 11.666V7.58268C12.25 6.93835 11.7277 6.41602 11.0833 6.41602Z" stroke="#767679" stroke-width="1.5" stroke-linecap="round" stroke-linejoin="round"/>
<path d="M4.08301 6.41602V4.08268C4.08301 3.30913 4.3903 2.56727 4.93728 2.02029C5.48426 1.47331 6.22613 1.16602 6.99967 1.16602C7.77322 1.16602 8.51509 1.47331 9.06207 2.02029C9.60905 2.56727 9.91634 3.30913 9.91634 4.08268V6.41602" stroke="#767679" stroke-width="1.5" stroke-linecap="round" stroke-linejoin="round"/>
<path d="M7 8.75V10.5" stroke="#767679" stroke-width="1.5" stroke-linecap="round"/>
</svg>
