<svg width="24" height="22" viewBox="0 0 24 22" fill="none" xmlns="http://www.w3.org/2000/svg">
<path d="M20.6218 9.625C19.757 9.625 18.9628 9.3457 18.3231 8.88594C18.1113 8.73555 17.9216 8.56797 17.7495 8.37891C17.5774 8.56367 17.3877 8.73125 17.1803 8.88164C16.5406 9.3457 15.742 9.625 14.8728 9.625C14.0081 9.625 13.2183 9.35 12.5786 8.85586C12.3668 8.73984 12.1726 8.56797 11.9962 8.37891C11.8197 8.56797 11.6255 8.73984 11.4138 8.85586C10.774 9.35 9.98425 9.625 9.11949 9.625C8.25913 9.625 7.46496 9.35 6.82521 8.85586C6.61343 8.73984 6.4193 8.56797 6.24723 8.37891C6.07075 8.56797 5.8722 8.73984 5.66042 8.85586C5.02508 9.35 4.19562 9.58633 3.371 9.625H3.36879C3.18966 9.625 3.00921 9.61211 2.83405 9.59062C0.393292 9.27266 -0.761568 6.47109 0.543743 4.46016L3.07318 0.56418C3.2982 0.213941 3.70014 0 4.12943 0H19.8717C20.2997 0 20.7012 0.213898 20.9262 0.56418L23.4543 4.46016C24.7647 6.47539 23.6043 9.27266 21.1556 9.59062C20.9835 9.61211 20.8071 9.58633 20.6262 9.625C20.6262 9.625 20.6262 9.625 20.6218 9.625ZM19.3952 2.0625H4.60594L2.33416 5.56445C2.0787 5.95547 2.05444 6.44102 2.23445 6.85781C2.4074 7.25313 2.72066 7.49375 3.11289 7.54531C3.20158 7.5582 3.28849 7.5625 3.36879 7.5625C3.89118 7.5625 4.35004 7.34336 4.67212 6.99531C5.07362 6.56563 5.60748 6.31641 6.24723 6.31641C6.84286 6.31641 7.41643 6.56563 7.81793 6.99531C8.14001 7.34336 8.59886 7.5625 9.11949 7.5625C9.64452 7.5625 10.0637 7.34336 10.4255 6.99531C10.827 6.56563 11.3961 6.31641 11.9962 6.31641C12.5962 6.31641 13.1654 6.56563 13.5669 6.99531C13.8889 7.34336 14.3522 7.5625 14.8728 7.5625C15.3935 7.5625 15.8523 7.34336 16.1744 6.99531C16.5759 6.56563 17.145 6.31641 17.7451 6.31641C18.3407 6.31641 18.9143 6.56133 19.3158 6.99531C19.6423 7.34336 20.1055 7.5625 20.6218 7.5625C20.71 7.5625 20.7938 7.5582 20.8821 7.54531C21.2792 7.49375 21.5924 7.25313 21.7645 6.85781C21.9454 6.40664 21.9233 5.95977 21.6674 5.56445L19.3952 2.0625ZM19.7658 14.4375L19.7658 12.0642C19.7658 11.4765 20.2423 11 20.83 11C20.487 11 20.487 11 20.83 11C21.4119 11 21.8836 11.4717 21.8836 12.0536L21.8836 19.25C21.8836 20.7668 20.6173 22 19.0599 22H4.94126C3.38203 22 2.11753 20.7668 2.11753 19.25L2.11753 12.0625C2.11753 11.4757 2.59321 11 3.18 11C3.76284 11 4.23532 11.4725 4.23532 12.0553L4.23532 14.4375H19.7658ZM19.7658 16.5H4.23532V19.25C4.23532 19.6281 4.55299 19.9375 4.94126 19.9375H19.0599C19.4481 19.9375 19.7658 19.6281 19.7658 19.25V16.5Z" fill="#BABABC"/>
</svg>
