<svg width="24" height="24" viewBox="0 0 24 24" fill="none" xmlns="http://www.w3.org/2000/svg">
<path d="M4 11C4 11.5523 4.44772 12 5 12C5.55228 12 6 11.5523 6 11H4ZM6 11V10H4V11H6ZM9 7H19V5H9V7ZM6 10C6 8.34315 7.34315 7 9 7V5C6.23858 5 4 7.23858 4 10H6Z" fill="#BABABC"/>
<path d="M16 3L18.8586 5.85858C18.9367 5.93668 18.9367 6.06332 18.8586 6.14142L16 9" stroke="#BABABC" stroke-width="2" stroke-linecap="round"/>
<path d="M20 13C20 12.4477 19.5523 12 19 12C18.4477 12 18 12.4477 18 13L20 13ZM18 13L18 14L20 14L20 13L18 13ZM15 17L5 17L5 19L15 19L15 17ZM18 14C18 15.6569 16.6569 17 15 17L15 19C17.7614 19 20 16.7614 20 14L18 14Z" fill="#BABABC"/>
<path d="M8 21L5.14142 18.1414C5.06332 18.0633 5.06332 17.9367 5.14142 17.8586L8 15" stroke="#BABABC" stroke-width="2" stroke-linecap="round"/>
</svg>
