<svg width="48" height="48" viewBox="0 0 48 48" fill="none" xmlns="http://www.w3.org/2000/svg">
<g id="tx-swap">
<path id="Vector" d="M24 44C35.0457 44 44 35.0457 44 24C44 12.9543 35.0457 4 24 4C12.9543 4 4 12.9543 4 24C4 35.0457 12.9543 44 24 44Z" stroke="#66B196" stroke-width="2" stroke-linecap="round" stroke-linejoin="round"/>
<g id="Group 54">
<g id="Group 24">
<path id="Vector 21" d="M33 25.1412C33 24.5889 32.5523 24.1412 32 24.1412C31.4477 24.1412 31 24.5889 31 25.1412L33 25.1412ZM28 30.8555L28 31.8555L28 30.8555ZM31 25.1412L31 26.8555L33 26.8555L33 25.1412L31 25.1412ZM28 29.8555L16 29.8555L16 31.8555L28 31.8555L28 29.8555ZM31 26.8555C31 28.5123 29.6569 29.8555 28 29.8555L28 31.8555C30.7614 31.8555 33 29.6169 33 26.8555L31 26.8555Z" fill="#66B196"/>
<path id="Vector 22" d="M19.4287 34.2832L16.1416 30.9961C16.0635 30.9179 16.0635 30.7913 16.1416 30.7132L19.4287 27.4261" stroke="#66B196" stroke-width="2" stroke-linecap="round"/>
</g>
<g id="Group 23">
<path id="Vector 21_2" d="M15 22.853C15 23.4052 15.4477 23.853 16 23.853C16.5523 23.853 17 23.4052 17 22.853H15ZM17 22.853V21.1387H15V22.853H17ZM20 18.1387L32 18.1387V16.1387L20 16.1387V18.1387ZM17 21.1387C17 19.4818 18.3431 18.1387 20 18.1387V16.1387C17.2386 16.1387 15 18.3772 15 21.1387H17Z" fill="#66B196"/>
<path id="Vector 22_2" d="M28.5713 13.7109L31.8584 16.9981C31.9365 17.0762 31.9365 17.2028 31.8584 17.2809L28.5713 20.5681" stroke="#66B196" stroke-width="2" stroke-linecap="round"/>
</g>
</g>
</g>
</svg>
