<svg width="77" height="76" viewBox="0 0 77 76" fill="none" xmlns="http://www.w3.org/2000/svg">
<path fill-rule="evenodd" clip-rule="evenodd" d="M0.0758617 27.1764L18.5282 -11.5678C18.5886 -11.6983 18.6855 -11.8085 18.8071 -11.8852C18.9288 -11.9619 19.0701 -12.0017 19.2139 -11.9999H81.9888C82.132 -12.0003 82.2722 -11.9595 82.3927 -11.8823C82.5133 -11.8052 82.609 -11.6949 82.6686 -11.5648L101.121 27.1794C101.191 27.3235 101.213 27.4863 101.184 27.644C101.155 27.8016 101.077 27.9459 100.96 28.0556L51.1246 75.7885C50.9831 75.9242 50.7945 76 50.5984 76C50.4023 76 50.2137 75.9242 50.0722 75.7885L0.236861 28.0527C0.119998 27.9429 0.0413304 27.7986 0.0123623 27.641C-0.0166059 27.4833 0.00564524 27.3205 0.0758617 27.1764ZM50.6722 31.2906C54.7955 31.2906 56.644 31.1804 57.0018 31.1535L56.9899 31.1506C69.6403 30.5903 79.0766 28.3848 79.0766 25.7502C79.0766 23.1156 69.6373 20.9102 56.9899 20.3469V28.96C56.6351 28.9928 54.6643 29.1567 50.7288 29.1567C47.4492 29.1567 45.0759 29.0167 44.2471 28.957V20.3409C31.5729 20.9072 22.1126 23.1096 22.1126 25.7502C22.1126 28.3908 31.5729 30.5962 44.2471 31.1535C45.064 31.1923 47.3925 31.2906 50.6722 31.2906ZM57.0018 19.4529V19.4558L56.9988 19.4528C56.9998 19.4528 57.0008 19.4529 57.0018 19.4529ZM57.0018 11.7457V19.4529C71.3203 20.1148 82.079 22.9519 82.079 26.3522C82.079 29.7528 71.3099 32.5901 56.9988 33.2487V57.9646H44.2441V33.2577C29.9002 32.596 19.1133 29.7588 19.1133 26.3552C19.1133 22.9517 29.9002 20.1114 44.2441 19.4528V11.7457H26.5968V-0.0117188H74.6521V11.7457H57.0018Z" fill="url(#paint0_linear_2901_27976)" fill-opacity="0.02"/>
<defs>
<linearGradient id="paint0_linear_2901_27976" x1="-11.8471" y1="2.44777" x2="94.1373" y2="78.6386" gradientUnits="userSpaceOnUse">
<stop stop-color="#E5E5E5"/>
<stop offset="1" stop-color="#E5E5E5" stop-opacity="0.5"/>
</linearGradient>
</defs>
</svg>
